<svg id="Capa_2" data-name="Capa 2" xmlns="http://www.w3.org/2000/svg" viewBox="0 0 396.66 161.36"><defs><style>.cls-1{fill:#fff;stroke-width:0}</style></defs><g id="Capa_1-2" data-name="Capa 1"><path class="cls-1" d="m.9 132 117.05.03s.34-2.19 1.56-5.97h-5.01l10.56-43.09h-8.49c-9.22 0-13.72 4.71-16.91 17.68l-6.21 25.34h-5.78l10.56-43.02h-8.49c-9.17 0-13.61 4.64-16.81 17.68l-6.23 25.4h-5.77l6.88-28.06c3.37-13.73 12.75-23.08 23.76-23.08h14.41l-1.29 5.26c4.12-3.96 9.78-5.26 13.57-5.26h14.56l-11.02 44.95c11.8-28.48 57.86-97.88 228.15-108.64 0 0-215.17-14.79-349.04 120.78Z"/><path class="cls-1" d="M169.87 126.06h-5.78l5.27-21.51h-32.51l-5.28 21.51h-5.77l6.32-25.74c3.92-15.98 12.78-25.4 24.33-25.4h25.96l-12.54 51.14Zm4.79-43.09h-19.95c-9.12 0-11.97 2.32-15.62 13.45h32.27l3.3-13.45ZM219.58 126.06h-7.01l-5.72-21.51h-20.51l-5.27 21.51h-5.73l6.31-25.74c3.89-15.84 12.73-25.4 24.33-25.4h25.86l-7.27 29.63h-10.73l5.73 21.51Zm1.33-29.64 3.3-13.45H203.3c-4.08 0-10.29 1.98-14.61 13.45h32.22ZM268.76 126.06H224.8l6.32-25.74c3.92-15.98 12.78-25.4 24.33-25.4h25.86l-1.98 8.06h-25.67c-9.17 0-13.72 4.71-16.9 17.68l-4.24 17.28h38.24l-1.99 8.13ZM317.19 126.06h-5.68l5.28-21.51h-32.51l-5.27 21.51h-5.78l6.31-25.74c3.92-15.98 12.78-25.4 24.33-25.4h25.86l-12.55 51.14Zm4.89-43.09h-19.94c-9.13 0-11.97 2.32-15.63 13.45h32.27l3.3-13.45ZM370.58 126.06h-5.72l12.54-51.14h5.73l-12.54 51.14ZM344.96 82.97c-6.23.02-7.1 4.71-10.28 17.68l-4.24 17.28h31.99l-1.99 8.13h-37.72l6.32-25.74c3.92-15.98 6.16-25.4 17.7-25.4l-1.78 8.06ZM390.21 125.98c-3.79 0-6.48-2.84-6.48-6.59 0-3.96 2.99-6.59 6.48-6.59s6.45 2.62 6.45 6.59-2.99 6.59-6.45 6.59Zm0-12.03c-2.85 0-5.07 2.24-5.07 5.44 0 2.99 1.94 5.44 5.07 5.44 2.82 0 5.04-2.22 5.04-5.44s-2.22-5.44-5.04-5.44Zm-1.3 9.21h-1.2v-7.29h2.77c1.76 0 2.66.62 2.66 2.1 0 1.32-.81 1.87-1.9 1.99l2.04 3.21h-1.36l-1.88-3.12h-1.13v3.12Zm1.34-4.14c.9 0 1.69-.09 1.69-1.15 0-.88-.86-.99-1.58-.99h-1.44v2.13h1.34ZM2.7 161.23c-.05 0-.14-.01-.29-.06-.15-.04-.29-.09-.43-.15-.13-.06-.26-.12-.37-.18-.11-.06-.18-.09-.2-.11-.28-.16-.51-.37-.71-.63-.2-.28-.36-.59-.48-.92-.12-.33-.19-.67-.21-1-.02-.33.01-.64.08-.92l.19-.74h2.81c0 .12 0 .25.02.38.04.28.15.54.3.77.16.24.37.42.61.55.25.13.51.2.79.2h9.49l.62-2.33c.07-.26.06-.52 0-.78-.07-.24-.17-.46-.32-.66-.15-.21-.35-.37-.58-.5-.24-.13-.5-.2-.78-.2l-8.39-.02c-.29 0-.59-.08-.92-.23-.34-.15-.66-.37-.95-.64-.29-.27-.54-.58-.73-.92-.18-.32-.26-.64-.26-.99v-.76c0-.08 0-.14.02-.18l1.7-6.4h13.33c.44 0 .84.1 1.25.32a3.405 3.405 0 0 1 1.71 2.11c.13.46.12.92 0 1.4l-.18.7h-2.87V148.1c-.09-.42-.29-.77-.62-1.05s-.69-.42-1.08-.42H5.7l-.64 2.4c-.11.43-.06.86.16 1.25.21.39.52.64.91.77l.05.03.15.02h12.69l-2.69 10.14H2.7ZM42.16 161.21l-.04-.02c-.07-.03-.15-.07-.23-.11-.1-.06-.2-.11-.29-.15-.06-.03-.1-.04-.15-.06-.27-.17-.49-.38-.68-.65-.21-.29-.37-.6-.48-.94-.11-.34-.17-.68-.19-1.02-.01-.34.02-.66.09-.94l3.63-13.64h13.35c.46 0 .91.12 1.31.34.42.23.77.54 1.05.92s.48.81.59 1.31c.11.48.1.97-.03 1.47l-.92 3.59-1.6.99.96 1.19-2.03 7.73H42.14Zm1.05-4.93c-.08.29-.07.58.03.85.09.25.22.46.39.64.16.17.36.31.58.42.23.11.46.17.7.17h9.6l1.16-4.36H43.83l-.61 2.29Zm1.41-5.17h11.8l.64-2.39c.08-.3.08-.59 0-.86-.08-.26-.21-.49-.38-.68-.18-.19-.38-.34-.61-.45-.24-.11-.49-.16-.73-.16h-9.51l-1.21 4.55ZM131 161.23s-.14-.01-.28-.06c-.15-.04-.29-.09-.42-.15-.14-.06-.26-.12-.38-.18-.11-.06-.17-.09-.2-.11-.28-.16-.52-.37-.71-.63-.2-.28-.37-.59-.49-.92-.12-.33-.19-.67-.21-1-.02-.33 0-.64.08-.92l.2-.74h2.81c0 .12 0 .25.02.38.05.28.15.54.3.77.16.24.37.42.61.55.24.13.52.2.78.2h9.49l.61-2.33c.07-.26.07-.52 0-.78a1.84 1.84 0 0 0-.9-1.16c-.24-.13-.51-.2-.79-.2l-8.39-.02c-.29 0-.6-.08-.92-.23-.34-.15-.66-.37-.95-.64-.29-.27-.54-.58-.73-.92-.18-.32-.26-.64-.27-.99v-.76c0-.08 0-.14.02-.18l1.7-6.4h13.33c.43 0 .84.1 1.25.32.41.21.78.51 1.08.87.3.36.51.77.64 1.24.12.46.12.92 0 1.4l-.18.7h-2.87V148.1c-.08-.42-.29-.77-.62-1.05-.34-.28-.7-.42-1.09-.42h-9.49l-.64 2.4c-.11.43-.06.86.16 1.25.21.39.52.64.92.77l.05.03.15.02h12.69l-2.69 10.14h-13.64ZM158.33 161.08c-.58 0-1.04-.07-1.36-.19-.29-.12-.48-.28-.62-.5-.14-.23-.21-.54-.21-.9 0-.33.02-.7.06-1.12l12.38-.1c.08 0 .16-.01.24-.03.12 0 .24-.02.37-.05.49-.14.91-.39 1.25-.77.34-.37.57-.8.71-1.29l2.05-7.41c.08-.31.08-.6 0-.86-.08-.25-.21-.47-.38-.66-.17-.19-.38-.35-.61-.45-.24-.11-.48-.16-.72-.16h-9.52l-1.96 7.84-2.76.02 2.76-10.67h13.3l.54.07c.25.03.53.1.82.19.29.09.58.22.85.39.25.16.47.37.63.65.17.28.28.63.31 1.06.04.43-.04.97-.24 1.62l-2.51 9.69c-.32 1.1-.83 1.93-1.53 2.5-.7.57-1.61.96-2.7 1.17l-11.14-.02ZM208.24 144.04h2.88l2.27 10.91 9.35-10.92c.14.05.27.11.42.18.22.11.44.26.64.42.2.17.38.37.54.58.1.14.18.29.24.45-.55.56-1.04 1.08-1.46 1.53-.45.49-.89.98-1.3 1.47-.41.48-.84.99-1.29 1.51-.44.52-.97 1.14-1.59 1.85-.98 1.14-2.14 2.46-3.44 3.92a154.84 154.84 0 0 0-3.79 4.42l-3.47-16.33ZM258.23 161.17l1.9-7.15h-11.85l-1.88 7.08a1.08 1.08 0 0 1-.3-.16c-.25-.15-.49-.35-.73-.59-.17-.17-.32-.39-.44-.63-.12-.25-.21-.52-.27-.8-.06-.29-.08-.58-.09-.86 0-.27.03-.51.08-.73l3.59-13.5H251l-1.95 7.35h11.84l1.88-7.11c.12.05.25.12.38.2.26.18.51.4.73.66.23.27.41.56.55.88.13.3.2.59.21.86v.6s0 .12-.02.3c-.03.14-.04.23-.05.26l-3.55 13.34h-2.78ZM292.93 161.29s-.12 0-.29-.06c-.16-.04-.31-.1-.46-.15-.14-.05-.26-.1-.37-.15a.935.935 0 0 1-.15-.08l-.05-.04c-.27-.15-.5-.36-.69-.64-.21-.28-.36-.6-.46-.93a4.17 4.17 0 0 1-.2-1.03c-.02-.34 0-.66.09-.94l3.58-13.5h2.76l-3.32 12.5c-.08.32-.08.61 0 .88.08.26.21.49.39.68.17.18.37.33.59.43.23.11.48.16.74.16h9.42l3.89-14.62c.12.05.24.12.36.21.26.18.51.41.73.67.22.27.4.56.54.88a2 2 0 0 1 .18.87v.32c.02.09.02.18.02.27-.02.08-.03.18-.04.3 0 .08-.02.13-.02.16l-3.66 13.8h-13.58ZM332.74 161.29s-.04-.01-.06-.02c-.08-.03-.16-.07-.25-.11-.03-.01-.05-.02-.07-.03v-.02l-.27-.15a1.94 1.94 0 0 1-.72-.65c-.21-.29-.37-.61-.47-.94-.11-.34-.17-.68-.19-1.03-.01-.34.01-.66.09-.94l3.62-13.64h13.3c.47 0 .92.11 1.32.34.42.23.77.54 1.04.91.28.38.47.82.58 1.31.11.48.1.98-.04 1.48l-3.58 13.49h-14.3Zm1.06-4.95c-.07.29-.07.58.03.85a1.894 1.894 0 0 0 .98 1.1c.23.12.46.17.67.17h9.55l2.56-9.66c.08-.3.08-.6-.01-.87-.08-.26-.21-.48-.38-.67-.17-.19-.38-.34-.6-.45a1.68 1.68 0 0 0-.71-.17h-9.51l-2.58 9.7ZM353.83 161.23s-.13 0-.28-.06c-.15-.04-.29-.09-.43-.15s-.27-.12-.37-.18l-.2-.1a2.14 2.14 0 0 1-.7-.64c-.21-.28-.37-.59-.48-.92-.12-.33-.19-.67-.21-1-.02-.33 0-.64.08-.92l.2-.74h2.81a1.91 1.91 0 0 0 .32 1.15c.16.24.36.42.61.55.25.13.51.2.79.2h9.49l.62-2.33c.07-.26.07-.52 0-.78a1.84 1.84 0 0 0-.9-1.16c-.24-.13-.5-.2-.78-.2l-8.4-.02c-.28 0-.59-.08-.91-.23-.35-.15-.67-.37-.96-.64-.29-.27-.54-.58-.73-.92-.18-.32-.27-.64-.27-.99v-.75c0-.08.01-.14.02-.19l1.7-6.4h13.32c.44 0 .85.1 1.25.32.41.21.77.51 1.07.87.3.36.51.77.64 1.24.13.46.12.92 0 1.4l-.19.7h-2.87V148.1c-.08-.42-.29-.77-.62-1.05-.34-.28-.7-.42-1.09-.42h-9.49l-.63 2.4c-.11.43-.06.86.16 1.25.21.39.52.64.92.77l.06.03.15.02h12.69l-2.69 10.14h-13.64Z"/><path class="cls-1" d="M2.7 161.23c-.05 0-.14-.01-.29-.06-.15-.04-.29-.09-.43-.15-.13-.06-.26-.12-.37-.18-.11-.06-.18-.09-.2-.11-.28-.16-.51-.37-.71-.63-.2-.28-.36-.59-.48-.92-.12-.33-.19-.67-.21-1-.02-.33.01-.64.08-.92l.19-.74h2.81c0 .12 0 .25.02.38.04.28.15.54.3.77.16.24.37.42.61.55.25.13.51.2.79.2h9.49l.62-2.33c.07-.26.06-.52 0-.78-.07-.24-.17-.46-.32-.66-.15-.21-.35-.37-.58-.5-.24-.13-.5-.2-.78-.2l-8.39-.02c-.29 0-.59-.08-.92-.23-.34-.15-.66-.37-.95-.64-.29-.27-.54-.58-.73-.92-.18-.32-.26-.64-.26-.99v-.76c0-.08 0-.14.02-.18l1.7-6.4h13.33c.44 0 .84.1 1.25.32a3.405 3.405 0 0 1 1.71 2.11c.13.46.12.92 0 1.4l-.18.7h-2.87V148.1c-.09-.42-.29-.77-.62-1.05s-.69-.42-1.08-.42H5.7l-.64 2.4c-.11.43-.06.86.16 1.25.21.39.52.64.91.77l.05.03.15.02h12.69l-2.69 10.14H2.7ZM42.16 161.21l-.04-.02c-.07-.03-.15-.07-.23-.11-.1-.06-.2-.11-.29-.15-.06-.03-.1-.04-.15-.06-.27-.17-.49-.38-.68-.65-.21-.29-.37-.6-.48-.94-.11-.34-.17-.68-.19-1.02-.01-.34.02-.66.09-.94l3.63-13.64h13.35c.46 0 .91.12 1.31.34.42.23.77.54 1.05.92s.48.81.59 1.31c.11.48.1.97-.03 1.47l-.92 3.59-1.6.99.96 1.19-2.03 7.73H42.14Zm1.05-4.93c-.08.29-.07.58.03.85.09.25.22.46.39.64.16.17.36.31.58.42.23.11.46.17.7.17h9.6l1.16-4.36H43.83l-.61 2.29Zm1.41-5.17h11.8l.64-2.39c.08-.3.08-.59 0-.86-.08-.26-.21-.49-.38-.68-.18-.19-.38-.34-.61-.45-.24-.11-.49-.16-.73-.16h-9.51l-1.21 4.55ZM131 161.23s-.14-.01-.28-.06c-.15-.04-.29-.09-.42-.15-.14-.06-.26-.12-.38-.18-.11-.06-.17-.09-.2-.11-.28-.16-.52-.37-.71-.63-.2-.28-.37-.59-.49-.92-.12-.33-.19-.67-.21-1-.02-.33 0-.64.08-.92l.2-.74h2.81c0 .12 0 .25.02.38.05.28.15.54.3.77.16.24.37.42.61.55.24.13.52.2.78.2h9.49l.61-2.33c.07-.26.07-.52 0-.78a1.84 1.84 0 0 0-.9-1.16c-.24-.13-.51-.2-.79-.2l-8.39-.02c-.29 0-.6-.08-.92-.23-.34-.15-.66-.37-.95-.64-.29-.27-.54-.58-.73-.92-.18-.32-.26-.64-.27-.99v-.76c0-.08 0-.14.02-.18l1.7-6.4h13.33c.43 0 .84.1 1.25.32.41.21.78.51 1.08.87.3.36.51.77.64 1.24.12.46.12.92 0 1.4l-.18.7h-2.87V148.1c-.08-.42-.29-.77-.62-1.05-.34-.28-.7-.42-1.09-.42h-9.49l-.64 2.4c-.11.43-.06.86.16 1.25.21.39.52.64.92.77l.05.03.15.02h12.69l-2.69 10.14h-13.64ZM158.33 161.08c-.58 0-1.04-.07-1.36-.19-.29-.12-.48-.28-.62-.5-.14-.23-.21-.54-.21-.9 0-.33.02-.7.06-1.12l12.38-.1c.08 0 .16-.01.24-.03.12 0 .24-.02.37-.05.49-.14.91-.39 1.25-.77.34-.37.57-.8.71-1.29l2.05-7.41c.08-.31.08-.6 0-.86-.08-.25-.21-.47-.38-.66-.17-.19-.38-.35-.61-.45-.24-.11-.48-.16-.72-.16h-9.52l-1.96 7.84-2.76.02 2.76-10.67h13.3l.54.07c.25.03.53.1.82.19.29.09.58.22.85.39.25.16.47.37.63.65.17.28.28.63.31 1.06.04.43-.04.97-.24 1.62l-2.51 9.69c-.32 1.1-.83 1.93-1.53 2.5-.7.57-1.61.96-2.7 1.17l-11.14-.02ZM208.24 144.04h2.88l2.27 10.91 9.35-10.92c.14.05.27.11.42.18.22.11.44.26.64.42.2.17.38.37.54.58.1.14.18.29.24.45-.55.56-1.04 1.08-1.46 1.53-.45.49-.89.98-1.3 1.47-.41.48-.84.99-1.29 1.51-.44.52-.97 1.14-1.59 1.85-.98 1.14-2.14 2.46-3.44 3.92a154.84 154.84 0 0 0-3.79 4.42l-3.47-16.33ZM258.23 161.17l1.9-7.15h-11.85l-1.88 7.08a1.08 1.08 0 0 1-.3-.16c-.25-.15-.49-.35-.73-.59-.17-.17-.32-.39-.44-.63-.12-.25-.21-.52-.27-.8-.06-.29-.08-.58-.09-.86 0-.27.03-.51.08-.73l3.59-13.5H251l-1.95 7.35h11.84l1.88-7.11c.12.05.25.12.38.2.26.18.51.4.73.66.23.27.41.56.55.88.13.3.2.59.21.86v.6s0 .12-.02.3c-.03.14-.04.23-.05.26l-3.55 13.34h-2.78ZM292.93 161.29s-.12 0-.29-.06c-.16-.04-.31-.1-.46-.15-.14-.05-.26-.1-.37-.15a.935.935 0 0 1-.15-.08l-.05-.04c-.27-.15-.5-.36-.69-.64-.21-.28-.36-.6-.46-.93a4.17 4.17 0 0 1-.2-1.03c-.02-.34 0-.66.09-.94l3.58-13.5h2.76l-3.32 12.5c-.08.32-.08.61 0 .88.08.26.21.49.39.68.17.18.37.33.59.43.23.11.48.16.74.16h9.42l3.89-14.62c.12.05.24.12.36.21.26.18.51.41.73.67.22.27.4.56.54.88a2 2 0 0 1 .18.87v.32c.02.09.02.18.02.27-.02.08-.03.18-.04.3 0 .08-.02.13-.02.16l-3.66 13.8h-13.58ZM332.74 161.29s-.04-.01-.06-.02c-.08-.03-.16-.07-.25-.11-.03-.01-.05-.02-.07-.03v-.02l-.27-.15a1.94 1.94 0 0 1-.72-.65c-.21-.29-.37-.61-.47-.94-.11-.34-.17-.68-.19-1.03-.01-.34.01-.66.09-.94l3.62-13.64h13.3c.47 0 .92.11 1.32.34.42.23.77.54 1.04.91.28.38.47.82.58 1.31.11.48.1.98-.04 1.48l-3.58 13.49h-14.3Zm1.06-4.95c-.07.29-.07.58.03.85a1.894 1.894 0 0 0 .98 1.1c.23.12.46.17.67.17h9.55l2.56-9.66c.08-.3.08-.6-.01-.87-.08-.26-.21-.48-.38-.67-.17-.19-.38-.34-.6-.45a1.68 1.68 0 0 0-.71-.17h-9.51l-2.58 9.7ZM353.83 161.23s-.13 0-.28-.06c-.15-.04-.29-.09-.43-.15s-.27-.12-.37-.18l-.2-.1a2.14 2.14 0 0 1-.7-.64c-.21-.28-.37-.59-.48-.92-.12-.33-.19-.67-.21-1-.02-.33 0-.64.08-.92l.2-.74h2.81a1.91 1.91 0 0 0 .32 1.15c.16.24.36.42.61.55.25.13.51.2.79.2h9.49l.62-2.33c.07-.26.07-.52 0-.78a1.84 1.84 0 0 0-.9-1.16c-.24-.13-.5-.2-.78-.2l-8.4-.02c-.28 0-.59-.08-.91-.23-.35-.15-.67-.37-.96-.64-.29-.27-.54-.58-.73-.92-.18-.32-.27-.64-.27-.99v-.75c0-.08.01-.14.02-.19l1.7-6.4h13.32c.44 0 .85.1 1.25.32.41.21.77.51 1.07.87.3.36.51.77.64 1.24.13.46.12.92 0 1.4l-.19.7h-2.87V148.1c-.08-.42-.29-.77-.62-1.05-.34-.28-.7-.42-1.09-.42h-9.49l-.63 2.4c-.11.43-.06.86.16 1.25.21.39.52.64.92.77l.06.03.15.02h12.69l-2.69 10.14h-13.64ZM266.98 161.17c-.12-.04-.24-.1-.37-.16-.29-.16-.57-.36-.83-.6-.21-.19-.38-.4-.51-.65-.15-.26-.26-.53-.34-.81-.08-.28-.12-.56-.12-.85 0-.28.03-.54.09-.77l3.64-13.71s.03 0 .04.01c.17.08.35.16.53.23.14.07.33.22.52.39.19.19.37.4.52.62.15.23.27.47.37.7.09.23.14.43.14.6 0 .12 0 .25.03.37.01.06.02.14.01.22v.33c0 .09 0 .15-.02.18l-3.7 13.89ZM229.44 158.48h9.59l.48-1.83h2.74l-1.22 4.61h-13.7c-3.7-.66-2.62-3.99-2.62-3.99l3.6-13.56h13.42c.42 0 .84.11 1.25.32.42.21.79.5 1.09.86.3.35.51.76.64 1.23.12.46.12.92 0 1.41l-.22.81h-2.81v-.06c0-.15-.04-.36-.11-.59-.08-.25-.22-.48-.42-.68-.18-.17-.38-.29-.61-.37-.23-.08-.42-.12-.58-.12h-9.61l-1.23 4.64h9.13l-.74 2.79h-9.13l-.63 2.39s-.66 1.87 1.72 2.17ZM181.35 158.48h9.59l.48-1.83h2.74l-1.22 4.61h-13.7c-3.71-.66-2.62-3.99-2.62-3.99l3.6-13.56h13.41c.43 0 .85.11 1.26.32.42.21.78.5 1.08.86.3.35.52.76.64 1.23.12.46.12.92-.01 1.41l-.21.81h-2.81v-.06c0-.15-.03-.36-.11-.59-.08-.25-.23-.48-.42-.68-.18-.17-.38-.29-.61-.37-.23-.08-.42-.12-.58-.12h-9.61l-1.23 4.64h9.13l-.74 2.79h-9.13l-.64 2.39s-.66 1.87 1.72 2.17ZM65.16 158.44h9.59l.48-1.83h2.74l-1.22 4.6H63.04c-3.7-.66-2.62-3.99-2.62-3.99l3.61-13.57h13.42c.42 0 .84.11 1.25.32.42.21.79.51 1.09.86.3.36.51.77.64 1.24.12.45.12.91 0 1.41l-.22.8H77.4v-.06c0-.15-.04-.37-.11-.6-.08-.25-.22-.48-.43-.68-.18-.16-.38-.29-.61-.37-.22-.08-.42-.12-.58-.12h-9.61l-1.23 4.65h9.13l-.74 2.79h-9.13l-.63 2.39s-.66 1.87 1.72 2.17ZM104.92 146.59l-7.81 14.75h-3.15l.07-14.61-4.38 14.61c-.13-.03-.27-.11-.41-.17-.29-.11-.53-.27-.73-.48-.34-.35-.54-.7-.63-1.02-.08-.33-.06-.72.06-1.17l3.97-14.71h5.24c-.03.77-.26 6.08.23 10.52l5.27-10.52h4.21c.91.1 1.1.64 1.16.79.2.49.24 1.21.12 2.11-.12.96-.38 2.13-.77 3.47-.39 1.35-3.05 11.18-3.05 11.18h-2.73l3.34-14.75ZM108.31 157.19l3.53-13.37h12.76c4.58 0 3.49 4.41 3.49 4.41l-3.52 13.12h-2.68l1.95-7.35h-11.97l-1.94 7.35s-2.55-.71-1.63-4.17Zm15.25-10.57h-9.69l-1.22 4.59h11.93l.55-2.08s.85-2.51-1.57-2.51ZM20.21 157.19l3.53-13.37H36.5c4.59 0 3.49 4.41 3.49 4.41l-3.52 13.12H33.8l1.95-7.35H23.78l-1.94 7.35s-2.54-.71-1.62-4.17Zm15.25-10.57h-9.7l-1.22 4.59h11.92l.55-2.08s.86-2.51-1.56-2.51ZM274.99 158.54h9.66l.93-3.49h2.76l-1.66 6.24h-14.42l-.06-.02c-.08-.02-.16-.06-.24-.09-.09-.04-.17-.08-.24-.11-.02-.01-.03-.02-.05-.03-.08-.08-.17-.14-.27-.21a.4.4 0 0 1-.12-.1c-.47-.42-.75-.86-.89-1.36-.15-.52-.19-1.02-.13-1.49l.03-.25c0-.07.01-.12.02-.15l3.67-13.74h13.4l.05.02.09.02c.26.02.48.06.64.12.12.03.24.07.36.11.1.03.18.07.25.1.22.11.44.27.68.5.23.22.42.47.56.75.04.09.09.2.13.31.04.12.08.22.13.31l.05.22c.01.06.02.11.03.16 0 .08 0 .16.02.23V147.18c0 .06-.01.18-.03.31-.02.12-.03.19-.03.22l-.66 2.48h-2.76l.4-1.52s.01-.08.03-.16a.97.97 0 0 0 0-.34c-.03-.2-.08-.37-.13-.55-.08-.21-.22-.43-.43-.62-.07-.06-.16-.14-.26-.2s-.2-.1-.29-.14c-.05-.02-.17-.06-.32-.1-.18-.04-.25-.06-.32-.06h-9.63l-2.67 9.96s-.45 2.08 1.72 2.08ZM314.03 161.23h12.65l.75-2.7h-10.32c-3.9 0-2.65-3.98-2.65-3.98l2.87-10.81h-3.12l-3.62 13.62s-.86 3.88 3.45 3.88ZM119.24 141.91h2.1l3.02-4.19h-3.53l-1.59 4.19zM268.67 141.91h2.1l3.02-4.19h-3.53l-1.59 4.19zM372.22 4.31a12.4 12.4 0 0 1-2.81-1.01c-.42.93-.84 2.18-1.08 3.75.84.41 1.89.82 3.11 1.12.18-1.49.47-2.79.78-3.87ZM380.04 7.54c-.18-1.55-.57-2.8-1.02-3.77-.6.26-1.43.52-2.55.67.3 1.16.55 2.51.63 3.95 1.14-.2 2.13-.53 2.93-.86ZM371.3 9.55c.02-.29.05-.58.08-.86-1.21-.36-2.26-.86-3.08-1.35-.07.51-.12 1.05-.14 1.63-.04.75-.02 1.44.04 2.09.81.42 1.82.82 3.08 1.08-.04-.78-.04-1.64.03-2.58ZM368.22 11.37c.13 1.21.4 2.23.72 3.06.85.5 1.83.97 2.87 1.26-.22-.79-.42-1.82-.52-3.09-1.25-.3-2.27-.75-3.08-1.24ZM374.33 8.61c.84.02 1.63-.04 2.36-.15-.07-1.45-.27-2.82-.5-3.99-.53.06-1.11.1-1.76.1s-1.33-.08-1.94-.2c-.25 1.09-.49 2.4-.65 3.9.77.17 1.61.29 2.5.33ZM371.78 8.81l-.06.74c-.07.98-.08 1.86-.06 2.66.7.13 1.47.22 2.32.26.92.06 1.75.03 2.52-.04.14-1.16.23-2.35.21-3.43-.74.14-1.53.22-2.38.2-.91-.04-1.76-.19-2.55-.4ZM374.05 12.98c-.87-.03-1.65-.14-2.37-.29.06 1.26.2 2.29.36 3.06.54.14 1.08.23 1.63.25.82.04 1.57 0 2.26-.08.17-.83.35-1.88.5-3-.73.08-1.52.11-2.38.06Z"/><path class="cls-1" d="M373.91 0c-5.06 0-9.17 4.1-9.17 9.17s4.1 9.17 9.17 9.17 9.17-4.1 9.17-9.17S378.98 0 373.91 0Zm7.12 13.96s-.57.56-1.65 1.13c-.54 1.17-1.05 1.8-1.05 1.8s.39-.58.82-1.67c-.81.4-1.87.79-3.16.98-.25.94-.45 1.55-.45 1.55s.15-.6.34-1.54c-.68.09-1.41.14-2.21.1-.53-.02-1.06-.11-1.57-.25.23 1.04.47 1.57.47 1.57s-.33-.54-.66-1.62c-1.04-.31-2.02-.8-2.87-1.34.74 1.83 1.67 2.71 1.67 2.71s-1.16-.96-2.03-2.95c-1.51-1.01-2.52-2.04-2.52-2.04s.97.92 2.43 1.83c-.35-.86-.65-1.89-.78-3.11-1.56-1.04-2.21-2.13-2.21-2.13s.63.94 2.18 1.85c-.05-.58-.07-1.19-.04-1.85.02-.66.09-1.28.19-1.86-1.19-.76-1.86-1.43-1.86-1.43s.69.57 1.91 1.2c.28-1.53.78-2.75 1.27-3.65-.77-.39-1.22-.72-1.22-.72s.48.29 1.27.64c.68-1.24 1.34-1.86 1.34-1.86s-.57.64-1.17 1.93c.74.31 1.72.65 2.85.86.62-2.08 1.3-3.27 1.3-3.27s-.53 1.21-1.04 3.32c.59.1 1.22.16 1.88.16s1.19-.03 1.71-.07c-.4-1.97-.87-3.28-.87-3.28s.62 1.31 1.14 3.26c1.11-.12 1.95-.32 2.55-.53-.91-1.91-2.02-2.73-2.02-2.73s1.23.79 2.26 2.64c.77-.3 1.1-.57 1.1-.57s-.31.32-1.04.67c.51.95.96 2.17 1.18 3.7 1.22-.55 1.9-1.08 1.9-1.08s-.68.64-1.87 1.33c.05.39.09.8.1 1.23.03.94-.02 1.81-.13 2.59 1.34-.61 1.99-1.25 1.99-1.25s-.66.8-2.04 1.55c-.21 1.3-.57 2.37-.93 3.19 1.03-.49 1.57-.96 1.57-.96Z"/><path class="cls-1" d="M380.07 7.83c-.8.42-1.79.83-2.94 1.09.02 1.09-.11 2.31-.31 3.49 1.3-.15 2.36-.46 3.2-.8.1-.83.15-1.76.11-2.77-.01-.35-.03-.69-.06-1.01ZM376.06 15.91c1.3-.17 2.35-.52 3.15-.87.29-.79.59-1.83.77-3.1-.85.41-1.92.77-3.24.95-.2 1.12-.46 2.18-.68 3.02Z"/></g></svg>